# xmcd
#
# Track frame offsets: 
#        150
#        15706
#        32447
#        49189
#        71247
#        85867
#        103344
#        121447
#        132119
#        149962
#        159806
#        166664
#        179939
#        193031
#
# Disc length: 2714 seconds
#
# Revision: 0
# Processed by: cddbd v1.5.2PL0 Copyright (c) Steve Scherf et al.
# Submitted via: ExactAudioCopy v0.99pb4
#
DISCID=ca0a980e
DTITLE=Clovis Gomes - Tocando a vida
DYEAR=2009
DGENRE=Blues
TTITLE0=My Baby
TTITLE1=Steal My Kisses
TTITLE2=Tocando a vida
TTITLE3=Trust My Baby
TTITLE4=When You Squeeze
TTITLE5=Tema para Isabel
TTITLE6=Shuffle
TTITLE7=Nadir
TTITLE8=Wang Dang Doodle
TTITLE9=Gaitarolando
TTITLE10=Bye Bye Bird
TTITLE11=Blues Caridade
TTITLE12=Mr. Luck
TTITLE13=Andando pelo Delta
EXTD=
EXTT0=
EXTT1=
EXTT2=
EXTT3=
EXTT4=
EXTT5=
EXTT6=
EXTT7=
EXTT8=
EXTT9=
EXTT10=
EXTT11=
EXTT12=
EXTT13=
PLAYORDER=
